<svg xmlns="http://www.w3.org/2000/svg" width="163.015" height="42" viewBox="0 0 163.015 42">
  <g id="Main-logo-group" transform="translate(-298.751 -251)">
    <g id="logo-tr-group" transform="translate(0 60)">
      <path id="tr-1" d="M4,0H19c2.209,0,4.965.4,4,4L15,31c-.846,2.354-1.248,4-4,4H-4c-4.7,0-4.5-2.143-4-4L0,4C.644,1.6,1.749,0,4,0Z" transform="translate(307 198)" fill="#4448f4"/>
      <path id="tr-2" d="M4,0H19c2.209,0,4.965.4,4,4L15,31c-.846,2.354-1.248,4-4,4H-4c-4.7,0-4.5-2.143-4-4L0,4C.644,1.6,1.749,0,4,0Z" transform="translate(313 195)" fill="#4448f4" opacity="0.5"/>
      <path id="tr-3" d="M4,0H19c2.209,0,4.965.4,4,4L15,31c-.846,2.354-1.248,4-4,4H-4c-4.7,0-4.5-2.143-4-4L0,4C.644,1.6,1.749,0,4,0Z" transform="translate(318 191)" fill="#4448f4" opacity="0.5"/>
    </g>
    <path id="invoices-text" d="M2.2,0V-21.39h5.04V0Zm9.087,0V-14.969l3.769-.22.186,2.6h.385a7.632,7.632,0,0,1,1.222-1.369,5.9,5.9,0,0,1,1.66-1.03,5.51,5.51,0,0,1,2.139-.394,4.263,4.263,0,0,1,3.406,1.332,5.918,5.918,0,0,1,1.154,3.971V0H20.732V-8.644a3.68,3.68,0,0,0-.432-1.98,1.718,1.718,0,0,0-1.563-.667,2.686,2.686,0,0,0-1.187.261,3.621,3.621,0,0,0-.984.7,6.387,6.387,0,0,0-.8.981V0ZM32.149,0q-.493-1.4-1-2.841T30.138-5.66l-.945-2.653q-.583-1.654-1.177-3.328t-1.187-3.328l4.835-.135q.424,1.571.837,3.139t.837,3.154L34.4-4.832h.366l1.073-3.993q.434-1.623.847-3.153l.808-2.991h4.761q-.584,1.663-1.177,3.34T39.894-8.283L38.949-5.61q-.493,1.41-.986,2.8L36.968,0ZM51.09.4a8.983,8.983,0,0,1-3.55-.644A6.915,6.915,0,0,1,45.046-2a7.3,7.3,0,0,1-1.471-2.539,9.28,9.28,0,0,1-.483-2.992,8.728,8.728,0,0,1,.9-4.014A6.737,6.737,0,0,1,46.66-14.35,8.459,8.459,0,0,1,51-15.381a9.272,9.272,0,0,1,3.472.6,6.778,6.778,0,0,1,2.484,1.67,7.023,7.023,0,0,1,1.492,2.5,9.315,9.315,0,0,1,.5,3.084,8.789,8.789,0,0,1-.915,4.052A6.869,6.869,0,0,1,55.354-.642,8.218,8.218,0,0,1,51.09.4Zm-.019-3.661a2.806,2.806,0,0,0,1.848-.605,3.653,3.653,0,0,0,1.1-1.578,5.92,5.92,0,0,0,.363-2.085,5.524,5.524,0,0,0-.416-2.251A3.272,3.272,0,0,0,52.8-11.219a3.065,3.065,0,0,0-1.744-.5,3.069,3.069,0,0,0-1.861.554,3.415,3.415,0,0,0-1.147,1.5,5.581,5.581,0,0,0-.388,2.132,5.623,5.623,0,0,0,.384,2.085,3.717,3.717,0,0,0,1.145,1.578A2.933,2.933,0,0,0,51.071-3.261ZM61.916,0V-14.97L66.4-15.1V0Zm2.2-17.28a3.1,3.1,0,0,1-1.987-.593,2.321,2.321,0,0,1-.743-1.928,2.289,2.289,0,0,1,.743-1.837,2.994,2.994,0,0,1,2.017-.637,2.85,2.85,0,0,1,2,.667,2.332,2.332,0,0,1,.728,1.807,2.334,2.334,0,0,1-.735,1.928A3.141,3.141,0,0,1,64.121-17.28ZM77.326.326A8.618,8.618,0,0,1,73-.683a6.76,6.76,0,0,1-2.7-2.766,8.464,8.464,0,0,1-.927-4.01,9.246,9.246,0,0,1,.859-4.055A6.542,6.542,0,0,1,72.8-14.331a8.059,8.059,0,0,1,4.241-1.031,11.758,11.758,0,0,1,1.773.134,11.76,11.76,0,0,1,1.664.373,7.493,7.493,0,0,1,1.391.569l-.336,3.87a9.415,9.415,0,0,0-1.562-.736,7.23,7.23,0,0,0-1.283-.333,6.94,6.94,0,0,0-1.021-.086A3.553,3.553,0,0,0,74.957-10.5,4.054,4.054,0,0,0,73.94-7.589a4.621,4.621,0,0,0,.507,2.2,3.616,3.616,0,0,0,1.49,1.5,4.947,4.947,0,0,0,2.415.541,6.069,6.069,0,0,0,1.121-.1,6.014,6.014,0,0,0,1.1-.317,5.77,5.77,0,0,0,1.046-.544l.229,3.87a8.93,8.93,0,0,1-1.185.4,11.206,11.206,0,0,1-1.492.277A15.182,15.182,0,0,1,77.326.326Zm14.9.07A9.683,9.683,0,0,1,87.49-.624a6.337,6.337,0,0,1-2.7-2.807,9.263,9.263,0,0,1-.869-4.1,9.642,9.642,0,0,1,.815-4.073,6.256,6.256,0,0,1,2.429-2.77,7.482,7.482,0,0,1,4.007-1,7.767,7.767,0,0,1,3.5.725,5,5,0,0,1,2.233,2.2,7.877,7.877,0,0,1,.778,3.707q0,.6-.027,1.07a8.926,8.926,0,0,1-.1.925L93.7-8.2q.03-.2.045-.412t.015-.392a3.6,3.6,0,0,0-.712-2.364,2.276,2.276,0,0,0-1.839-.862,2.432,2.432,0,0,0-1.5.5,3.289,3.289,0,0,0-1.035,1.4,5.555,5.555,0,0,0-.378,2.144v.73a4.9,4.9,0,0,0,.473,2.246,3.184,3.184,0,0,0,1.464,1.424,5.655,5.655,0,0,0,2.529.495,9.93,9.93,0,0,0,1.383-.112,12.189,12.189,0,0,0,1.608-.346,8.451,8.451,0,0,0,1.53-.595l.147,3.782a9.329,9.329,0,0,1-1.357.487A12.36,12.36,0,0,1,94.32.269,16.118,16.118,0,0,1,92.223.4ZM85.653-6.75v-2.4l9.281-.2,2.615.738V-6.75ZM105.414.4A16.131,16.131,0,0,1,103.3.263,13.525,13.525,0,0,1,101.455-.1a9.748,9.748,0,0,1-1.469-.524l.276-3.8a8.661,8.661,0,0,0,1.48.714,10.265,10.265,0,0,0,1.682.473,8.972,8.972,0,0,0,1.693.167,4.85,4.85,0,0,0,1.069-.109,1.427,1.427,0,0,0,.756-.408,1.245,1.245,0,0,0,.277-.875.9.9,0,0,0-.3-.694,2.781,2.781,0,0,0-.979-.5q-.683-.229-1.862-.533a8.862,8.862,0,0,1-2.25-.876,3.618,3.618,0,0,1-1.382-1.376,4.367,4.367,0,0,1-.469-2.137,4.376,4.376,0,0,1,1.475-3.523,6.012,6.012,0,0,1,4.028-1.256,14.137,14.137,0,0,1,2.133.155,14.436,14.436,0,0,1,1.853.4,11,11,0,0,1,1.406.5l-.306,3.83a7.418,7.418,0,0,0-1.5-.736,10.619,10.619,0,0,0-1.549-.438A6.544,6.544,0,0,0,106.3-11.8a2.854,2.854,0,0,0-.882.127,1.264,1.264,0,0,0-.619.412,1.156,1.156,0,0,0-.226.741,1.21,1.21,0,0,0,.193.683,1.735,1.735,0,0,0,.731.543,10.3,10.3,0,0,0,1.574.532,15.745,15.745,0,0,1,2.656.94,3.633,3.633,0,0,1,1.537,1.279,3.79,3.79,0,0,1,.5,2.068,4.893,4.893,0,0,1-.651,2.548,4.3,4.3,0,0,1-2.05,1.71A9.174,9.174,0,0,1,105.414.4Z" transform="translate(350 284)" fill="#221b44"/>
  </g>
</svg>
